<?xml version="1.0" encoding="UTF-8"?>
<svg version="1.1" xmlns="http://www.w3.org/2000/svg" width="128" height="128">
<path d="M0 0 C42.24 0 84.48 0 128 0 C128 42.24 128 84.48 128 128 C85.76 128 43.52 128 0 128 C0 85.76 0 43.52 0 0 Z " fill="#2D4C68" transform="translate(0,0)"/>
<path d="M0 0 C2.71363318 0.3689589 3.83784238 0.83428629 5.78125 2.8203125 C7.55118265 5.19363128 9.29341362 7.58068613 11 10 C11.44214844 10.57105469 11.88429688 11.14210938 12.33984375 11.73046875 C16.01645437 17.0294983 15.36777176 22.77852777 15 29 C17.38990728 29.64587123 17.38990728 29.64587123 20 30 C23.11554696 27.83642572 23.89361483 26.46100241 24.75 22.75 C24.8325 21.8425 24.915 20.935 25 20 C34.1207751 18.85797401 41.73950914 18.63005283 50 23 C50.144375 21.948125 50.28875 20.89625 50.4375 19.8125 C52.17347451 12.64999778 57.81790358 5.18209642 63 0 C63.99 0 64.98 0 66 0 C67.9685594 3.93711879 67.31620193 8.79532385 67.375 13.125 C67.43107422 14.65640625 67.43107422 14.65640625 67.48828125 16.21875 C67.56541103 22.88619082 66.76396359 28.02454779 62 33 C61.34 33 60.68 33 60 33 C60.73476562 34.06408081 60.73476562 34.06408081 61.484375 35.1496582 C64.05239736 39.97917834 63.24311605 44.84206384 63 50.1875 C62.98066406 51.27353516 62.96132812 52.35957031 62.94140625 53.47851562 C62.5399411 63.60638637 59.23822216 71.76177784 52 79 C45.24375879 84.28215222 39.21699549 88.59863776 30.3984375 88.37890625 C22.53737883 87.13701262 15.09010576 80.95875301 10.3046875 74.828125 C5.24511082 67.54428997 3.64798795 61.80030115 4 53 C6.475 52.505 6.475 52.505 9 52 C9 49.36 9 46.72 9 44 C7.02 43.34 5.04 42.68 3 42 C3.55728913 38.65626525 4.35173889 35.96687001 6 33 C5.401875 32.79375 4.80375 32.5875 4.1875 32.375 C0.96611904 30.35013197 0.35445884 28.58375227 -1 25 C-1.38306009 21.07555858 -1.32829251 17.18909205 -1.25 13.25 C-1.24484375 12.19683594 -1.2396875 11.14367187 -1.234375 10.05859375 C-1.15479604 2.30959207 -1.15479604 2.30959207 0 0 Z " fill="#878786" transform="translate(31,24)"/>
<path d="M0 0 C0.44730469 0.433125 0.89460938 0.86625 1.35546875 1.3125 C5.05696919 4.79457851 5.05696919 4.79457851 9.6875 6.625 C12.70913903 5.8083408 13.87436659 4.2584855 16 2 C18.96174561 0.55524605 20.68733553 0 24 0 C24.80706825 10.43808272 22.66126659 16.66501154 16.8125 25.1875 C10.9224875 31.0775125 3.42319875 37.16445485 -5.25 37.4375 C-11.33432741 37.31540647 -16.1142758 34.38614552 -20.71484375 30.58203125 C-22.80272878 28.01183843 -22.70846922 25.84995246 -22.62890625 22.625 C-21.34812473 17.2791293 -17.59489754 13.04245507 -14 9 C-13.34 8.67 -12.68 8.34 -12 8 C-12 9.65 -12 11.3 -12 13 C-11.34 13 -10.68 13 -10 13 C-9.67 11.35 -9.34 9.7 -9 8 C-9.66 7.67 -10.32 7.34 -11 7 C-10.625 5.0625 -10.625 5.0625 -10 3 C-7.26094655 1.63047327 -5.02912668 1.87378639 -2 2 C-1.34 2.33 -0.68 2.66 0 3 C0 2.01 0 1.02 0 0 Z " fill="#B2B2B1" transform="translate(69,75)"/>
<path d="M0 0 C8.00800522 1.50474396 12.52570371 9.920537 16.875 16.1875 C17.36363525 16.88883057 17.85227051 17.59016113 18.35571289 18.31274414 C18.81324951 18.98684326 19.27078613 19.66094238 19.7421875 20.35546875 C20.1532373 20.96028076 20.56428711 21.56509277 20.98779297 22.18823242 C22.0623417 24.11158654 22.56433446 25.84864207 23 28 C24.32 28.33 25.64 28.66 27 29 C26.51622419 35.4100295 26.51622419 35.4100295 24.25 38 C21.4193689 39.25805827 19.91481676 38.89063845 17 38 C16.22238437 34.88953749 16.03054601 32.50556888 16.23046875 29.26953125 C16.25569978 24.47453872 14.48641611 21.54793991 11.8125 17.6875 C11.42513672 17.08099609 11.03777344 16.47449219 10.63867188 15.84960938 C8.16673683 12.13557805 5.85158851 10.14680675 2 8 C1.88313557 12.02058602 1.81252612 16.04073082 1.75 20.0625 C1.69972656 21.7630957 1.69972656 21.7630957 1.6484375 23.49804688 C1.56990912 30.23185551 1.84935063 34.58109665 6 40 C6.66 40.33 7.32 40.66 8 41 C7.01 43.475 7.01 43.475 6 46 C5.01 46 4.02 46 3 46 C-2.22842568 38.18517855 -2.69873332 30.87783311 -2.48706055 21.79345703 C-2.43710744 19.60782427 -2.42553742 17.42443705 -2.41992188 15.23828125 C-2.30373584 3.67929818 -2.30373584 3.67929818 0 0 Z " fill="#3E3F3F" transform="translate(29,16)"/>
<path d="M0 0 C2.875 2.1875 2.875 2.1875 5 5 C5.3125 7.8125 5.3125 7.8125 5 10 C4.01 9.67 3.02 9.34 2 9 C2.66 10.98 3.32 12.96 4 15 C-0.62 15.33 -5.24 15.66 -10 16 C-10.6930502 22.42973384 -10.6930502 22.42973384 -8.6875 24.77734375 C-6.34375 26.38867188 -6.34375 26.38867188 -4 28 C-6.5162655 30.41561488 -7.92032641 30.98985972 -11.4375 31.4375 C-15.71104337 30.91267888 -17.29190436 30.36460367 -20 27 C-21.00484187 23.77110814 -20.87878415 21.25493794 -20 18 C-14.31530706 8.15765353 -14.31530706 8.15765353 -10 6 C-10 7.65 -10 9.3 -10 11 C-9.34 11 -8.68 11 -8 11 C-7.67 9.35 -7.34 7.7 -7 6 C-7.66 5.67 -8.32 5.34 -9 5 C-8.625 3.0625 -8.625 3.0625 -8 1 C-5.11138291 -0.44430855 -3.20352299 -0.37688506 0 0 Z " fill="#B7B7B7" transform="translate(67,77)"/>
<path d="M0 0 C0.99 0 1.98 0 3 0 C5.43275717 6.37405485 5.40753383 12.48452745 5.42553711 19.20288086 C5.43741357 21.29725917 5.48664258 23.38866551 5.53710938 25.48242188 C5.63104905 33.48515349 4.94980509 39.494766 0 46 C-0.99 46 -1.98 46 -3 46 C-3.66 44.35 -4.32 42.7 -5 41 C-4.38125 40.4225 -3.7625 39.845 -3.125 39.25 C0.57973455 35.32733989 1.25007202 32.507058 1.1953125 27.140625 C1.18886719 26.02558594 1.18242188 24.91054688 1.17578125 23.76171875 C1.15902344 22.60285156 1.14226562 21.44398437 1.125 20.25 C1.11597656 19.07566406 1.10695313 17.90132812 1.09765625 16.69140625 C1.07410063 13.79406464 1.04120652 10.89713559 1 8 C-3.56363998 10.53704227 -6.00895497 13.37540289 -8.75 17.75 C-9.14832031 18.34554687 -9.54664062 18.94109375 -9.95703125 19.5546875 C-12.62816393 23.73795291 -13.61929316 27.05081104 -14 32 C-15.98 31.01 -17.96 30.02 -20 29 C-18.72232816 18.19968022 -7.3489879 7.3489879 0 0 Z " fill="#3F4040" transform="translate(96,16)"/>
<path d="M0 0 C0.44730469 0.433125 0.89460938 0.86625 1.35546875 1.3125 C5.05696919 4.79457851 5.05696919 4.79457851 9.6875 6.625 C12.70913903 5.8083408 13.87436659 4.2584855 16 2 C18.96174561 0.55524605 20.68733553 0 24 0 C24.80696451 10.43674098 22.76823925 17.40161786 16.3125 25.625 C15.549375 26.40875 14.78625 27.1925 14 28 C13.34 28 12.68 28 12 28 C11.97164062 27.44054687 11.94328125 26.88109375 11.9140625 26.3046875 C11.04861607 19.03025937 7.87799644 14.43582004 3.45556641 8.82373047 C0.86663309 5.49240329 0 4.37060732 0 0 Z " fill="#868686" transform="translate(69,75)"/>
<path d="M0 0 C2.24609375 1.22265625 2.24609375 1.22265625 4 3 C4.83453235 6.71798552 4.63429285 10.25439136 4 14 C1.73413159 17.30169396 0.43147896 18.63295411 -3.4375 19.625 C-7.26795728 18.69074213 -9.15139056 16.71912719 -12 14 C-13.73431442 10.53137116 -13.45723642 6.79237266 -13 3 C-10.0968437 -2.30141584 -5.20531402 -1.53043564 0 0 Z " fill="#3F3F3F" transform="translate(82,63)"/>
<path d="M0 0 C0.94875 0.04125 1.8975 0.0825 2.875 0.125 C3.2153125 1.0221875 3.2153125 1.0221875 3.5625 1.9375 C4.75247021 4.35122044 4.75247021 4.35122044 7.5 5.5 C8.675625 6.304375 8.675625 6.304375 9.875 7.125 C10.1875 10.3125 10.1875 10.3125 9.875 13.125 C8.92625 13.57875 7.9775 14.0325 7 14.5 C3.87186321 15.92738254 3.87186321 15.92738254 1.875 18.125 C-2.68055556 17.56944444 -2.68055556 17.56944444 -4.125 16.125 C-4.17180639 14.70910678 -4.16251443 13.29116987 -4.125 11.875 C-4.08105213 9.11067928 -4.17077963 6.90983573 -4.75 4.1875 C-4.87375 3.506875 -4.9975 2.82625 -5.125 2.125 C-3.125 0.125 -3.125 0.125 0 0 Z " fill="#B7B7B8" transform="translate(65.125,42.875)"/>
<path d="M0 0 C1.27875 0.00257812 2.5575 0.00515625 3.875 0.0078125 C5.15375 0.00523438 6.4325 0.00265625 7.75 0 C10.875 0.1328125 10.875 0.1328125 11.875 1.1328125 C12.66945049 7.03444471 12.66945049 7.03444471 10.7109375 9.7421875 C8.33594234 11.9101318 6.55997962 13.11610568 3.3125 13.1953125 C0.19787968 11.83765749 -1.80673634 10.64978448 -4.125 8.1328125 C-4.5 4.4453125 -4.5 4.4453125 -4.125 1.1328125 C-3.125 0.1328125 -3.125 0.1328125 0 0 Z " fill="#414141" transform="translate(60.125,91.8671875)"/>
<path d="M0 0 C0.99 0 1.98 0 3 0 C3.05423638 1.91635217 3.09289963 3.83314925 3.125 5.75 C3.14820312 6.81734375 3.17140625 7.8846875 3.1953125 8.984375 C3.00487687 11.92470106 2.52670104 13.52361878 1 16 C-1.86724686 15.42655063 -2.8614515 15.1385485 -5 13 C-4.64935068 8.90909124 -2.95569181 2.95569181 0 0 Z " fill="#B6B6B6" transform="translate(90,75)"/>
<path d="M0 0 C-2.47447231 2.71013633 -4.33587433 3.83795031 -8.0859375 4.203125 C-12.89830874 4.30167185 -16.08709093 4.15557183 -20 1 C-20 0.67 -20 0.34 -20 0 C-12.59668803 -3.56455761 -7.59554796 -2.76847075 0 0 Z " fill="#878888" transform="translate(74,108)"/>
<path d="M0 0 C5 1 5 1 6 2 C6.1328125 3.8125 6.1328125 3.8125 6.125 6 C6.12757812 6.721875 6.13015625 7.44375 6.1328125 8.1875 C6 10 6 10 5 11 C3.35 11 1.7 11 0 11 C0 7.37 0 3.74 0 0 Z " fill="#414140" transform="translate(35,66)"/>
<path d="M0 0 C0.99 0.33 1.98 0.66 3 1 C2.37240135 3.92879371 1.41377341 6.36095629 0 9 C-1.98 9 -3.96 9 -6 9 C-6.33 7.02 -6.66 5.04 -7 3 C-5.5459375 2.5359375 -5.5459375 2.5359375 -4.0625 2.0625 C-1.15934208 1.30476658 -1.15934208 1.30476658 0 0 Z " fill="#B7B7B7" transform="translate(42,81)"/>
<path d="M0 0 C1.67542976 0.28604898 3.34385343 0.61781233 5 1 C5 3.31 5 5.62 5 8 C3.34385343 8.38218767 1.67542976 8.71395102 0 9 C-1 8 -1 8 -1.125 4.5 C-1 1 -1 1 0 0 Z " fill="#0A0A0A" transform="translate(48,68)"/>
<path d="M0 0 C1.32 0 2.64 0 4 0 C5.35439668 2.70879335 5.06501451 5.00933268 5 8 C3.34385343 8.38218767 1.67542976 8.71395102 0 9 C-1 8 -1 8 -1.125 4.5 C-1 1 -1 1 0 0 Z " fill="#040404" transform="translate(76,68)"/>
<path d="M0 0 C0.33 0 0.66 0 1 0 C1 3.63 1 7.26 1 11 C-2.63 11 -6.26 11 -10 11 C-8.68 10.34 -7.36 9.68 -6 9 C-1.67857582 5.25611432 -1.67857582 5.25611432 0 0 Z " fill="#EDF0F2" transform="translate(127,117)"/>
<path d="M0 0 C0.66 1.32 1.32 2.64 2 4 C4.93968016 7.24912018 7.0355165 9.01775825 11 11 C7.37 11 3.74 11 0 11 C0 7.37 0 3.74 0 0 Z " fill="#EEF0F2" transform="translate(0,117)"/>
<path d="M0 0 C3.63 0 7.26 0 11 0 C11 3.63 11 7.26 11 11 C10.34 9.68 9.68 8.36 9 7 C6.06031984 3.75087982 3.9644835 1.98224175 0 0 Z " fill="#EDF0F2" transform="translate(117,0)"/>
<path d="M0 0 C3.63 0 7.26 0 11 0 C9.02 0.99 9.02 0.99 7 2 C5.29319053 3.62553283 3.62339805 5.29115995 2 7 C1.34 7.66 0.68 8.32 0 9 C0 6.03 0 3.06 0 0 Z " fill="#F2F4F5" transform="translate(0,0)"/>
<path d="M0 0 C1.98 0.495 1.98 0.495 4 1 C4 2.32 4 3.64 4 5 C2.35 4.67 0.7 4.34 -1 4 C-0.67 2.68 -0.34 1.36 0 0 Z " fill="#454545" transform="translate(54,60)"/>
<path d="M0 0 C0.99 0 1.98 0 3 0 C2.67 1.65 2.34 3.3 2 5 C0.68 5 -0.64 5 -2 5 C-1.34 3.35 -0.68 1.7 0 0 Z " fill="#434343" transform="translate(58,83)"/>
</svg>
